<svg xmlns="http://www.w3.org/2000/svg" xmlns:xlink="http://www.w3.org/1999/xlink" width="500" zoomAndPan="magnify" viewBox="0 0 375 374.999991" height="500" preserveAspectRatio="xMidYMid meet" version="1.0"><defs><clipPath id="id1"><path d="M 37.5 37.5 L 337.5 37.5 L 337.5 337.5 L 37.5 337.5 Z M 37.5 37.5 " clip-rule="nonzero"/></clipPath></defs><g clip-path="url(#id1)"><path fill="#ff4c29" d="M 337.5 187.5 C 337.5 104.671875 270.328125 37.5 187.5 37.5 C 104.671875 37.5 37.5 104.671875 37.5 187.5 C 37.5 270.328125 104.671875 337.5 187.5 337.5 C 270.328125 337.5 337.5 270.328125 337.5 187.5 Z M 337.5 187.5 " fill-opacity="1" fill-rule="nonzero"/></g><path fill="#ffffff" d="M 220.875 182.117188 C 220.875 200.558594 205.941406 215.492188 187.5 215.492188 C 169.058594 215.492188 154.125 200.558594 154.125 182.117188 L 154.125 132.058594 C 154.125 113.617188 169.058594 98.683594 187.5 98.683594 C 205.941406 98.683594 220.875 113.617188 220.875 132.058594 Z M 220.875 182.117188 " fill-opacity="1" fill-rule="nonzero"/><path fill="#ff4c29" d="M 209.992188 152.433594 L 165.070312 152.433594 L 165.070312 133.269531 C 165.070312 120.875 175.105469 110.835938 187.5 110.835938 C 199.894531 110.835938 209.992188 120.875 209.992188 133.269531 Z M 209.992188 152.433594 " fill-opacity="1" fill-rule="nonzero"/><path fill="#ffffff" d="M 241.308594 157.390625 C 237.378906 157.390625 234.234375 160.535156 234.234375 164.464844 L 234.234375 183.328125 C 234.234375 209.085938 213.253906 230.0625 187.5 230.0625 C 161.746094 230.0625 140.765625 209.085938 140.765625 183.328125 L 140.765625 164.464844 C 140.765625 160.535156 137.621094 157.390625 133.691406 157.390625 C 129.761719 157.390625 126.617188 160.535156 126.617188 164.464844 L 126.617188 183.328125 C 126.617188 214.464844 150.136719 240.21875 180.425781 243.726562 L 180.425781 262.226562 L 164.042969 262.226562 C 160.113281 262.226562 156.96875 265.371094 156.96875 269.300781 C 156.96875 273.230469 160.113281 276.375 164.042969 276.375 L 210.957031 276.375 C 214.886719 276.375 218.03125 273.230469 218.03125 269.300781 C 218.03125 265.371094 214.886719 262.226562 210.957031 262.226562 L 194.574219 262.226562 L 194.574219 243.726562 C 224.804688 240.21875 248.382812 214.464844 248.382812 183.328125 L 248.382812 164.464844 C 248.320312 160.59375 245.179688 157.390625 241.308594 157.390625 Z M 241.308594 157.390625 " fill-opacity="1" fill-rule="nonzero"/></svg>